Coordinates
version=1
nRows=7
nColumns=63
inDegrees=yes

Units are S.I. units (second, meters, Newtons, ...)
If the header above contains a line with 'inDegrees', this indicates whether rotational values are in degrees (yes) or radians (no).

endheader
time	pelvis_tilt	pelvis_list	pelvis_rotation	pelvis_tx	pelvis_ty	pelvis_tz	hip_flexion_r	hip_adduction_r	hip_rotation_r	knee_angle_r	knee_angle_r_beta	ankle_angle_r	subtalar_angle_r	mtp_angle_r	hip_flexion_l	hip_adduction_l	hip_rotation_l	knee_angle_l	knee_angle_l_beta	ankle_angle_l	subtalar_angle_l	mtp_angle_l	L5_S1_Flex_Ext	L5_S1_Lat_Bending	L5_S1_axial_rotation	L4_L5_Flex_Ext	L4_L5_Lat_Bending	L4_L5_axial_rotation	L3_L4_Flex_Ext	L3_L4_Lat_Bending	L3_L4_axial_rotation	L2_L3_Flex_Ext	L2_L3_Lat_Bending	L2_L3_axial_rotation	L1_L2_Flex_Ext	L1_L2_Lat_Bending	L1_L2_axial_rotation	L1_T12_Flex_Ext	L1_T12_Lat_Bending	L1_T12_axial_rotation	Abs_r3	Abs_r2	Abs_r1	Abs_t1	Abs_t2	neck_flexion	neck_bending	neck_rotation	arm_flex_r	arm_add_r	arm_rot_r	elbow_flex_r	pro_sup_r	wrist_flex_r	wrist_dev_r	arm_flex_l	arm_add_l	arm_rot_l	elbow_flex_l	pro_sup_l	wrist_flex_l	wrist_dev_l
    120.56000000	     90.41614427	    -14.97430377	    186.20526813	      2.58942734	      1.08466136	      0.37518133	     44.04337329	    -20.44492434	     25.01213728	     26.20569564	      0.45737567	      5.14651212	    -10.63487300	     26.97329278	     20.04017261	     11.43627241	    -62.88958633	     11.64943612	      0.20332102	      2.64376050	     16.94940460	     28.12693526	     40.69250946	    -11.97356045	    -14.97683295	     75.57005932	    -15.92483539	    -15.91288501	     66.85372379	    -29.11251487	    -15.91288501	     46.50746906	    -29.11251487	    -13.10472884	     37.78706428	    -24.41648446	    -12.16867678	     23.25169990	    -18.54704513	    -11.23262472	    290.66252581	   -135.44731048	    -83.29665184	      0.00000000	      0.00000000	     -4.10363992	     22.92945268	      4.97472264	   -222.06907256	   -158.55598069	    161.54137695	     83.20156165	     75.25643839	      1.49295691	      8.57159600	    311.88013207	    -76.63471451	    280.01722655	    114.75284715	     50.10139100	     -4.45500256	     -2.12953885
    120.64000000	     91.00197665	    -15.67800156	    185.76580650	      2.52208304	      1.10543422	      0.37288580	     43.13197210	    -21.45116135	     22.66605699	     21.30547105	      0.37185062	      0.57198292	     -8.60454355	     27.77220660	     20.75046733	     11.25247399	    -64.29410189	     10.35225351	      0.18068091	     -0.94352462	     17.54049305	     28.49217270	     40.59478821	    -12.33280091	    -14.97984669	     75.38858119	    -16.40262522	    -15.91608711	     66.69317755	    -29.98597214	    -15.91608711	     46.39578345	    -29.98597214	    -13.10736586	     37.69632033	    -25.14904762	    -12.17112544	     23.19586198	    -19.10350862	    -11.23488502	    289.96451272	   -139.51111050	    -83.31341335	      0.00000000	      0.00000000	     -1.20142773	     24.05437201	      4.66214454	   -224.52655300	   -159.29940623	    161.25661081	     86.48190007	     76.32677933	      0.30258025	      9.44122043	    289.49457899	    -77.49836697	    269.59239491	    104.44569029	     50.83538001	     -9.63656320	      1.32370605
    120.72000000	     89.31972758	    -15.31351243	    187.89953395	      2.43475956	      1.09644168	      0.37282017	     38.70986624	    -22.24997512	     20.56217287	     19.90123969	      0.34734216	      2.70154259	     -9.04555005	     27.18011424	     18.44575148	     11.62375128	    -61.31803106	     11.38245149	      0.19866126	      0.54384603	     17.24439805	     28.27413128	     41.02447280	    -12.20945806	    -14.97896942	     76.18654843	    -16.23857922	    -15.91515501	     67.39910636	    -29.68607633	    -15.91515501	     46.88686996	    -29.68607633	    -13.10659824	     38.09532544	    -24.89752687	    -12.17041265	     23.44138376	    -18.91245053	    -11.23422707	    293.03370674	   -138.11583146	    -83.30853423	      0.00000000	      0.00000000	      1.22155755	     20.47965470	      5.43691448	   -223.99985223	   -157.05004096	    167.24102639	     84.24777348	     76.82421053	     -0.21688831	     10.40287011	    299.14847239	    -79.90159926	    281.86540776	    105.35747308	     55.23258696	     -6.75996892	      3.41899896
    120.80000000	     88.56966260	    -17.48525026	    184.39885244	      2.38031687	      1.10309492	      0.36164688	     37.75114122	    -22.56337741	     20.77059159	     18.06117536	      0.31522698	     -0.26931769	     -5.59128133	     27.53703556	     16.93522890	     12.21322776	    -62.65848026	      9.72881146	      0.16979979	     -1.80996448	     17.51996705	     28.58629491	     41.39419194	    -12.24844433	    -14.98208430	     76.87315384	    -16.29043096	    -15.91846457	     68.00651793	    -29.78086754	    -15.91846457	     47.30942196	    -29.78086754	    -13.10932376	     38.43864663	    -24.97702768	    -12.17294349	     23.65264127	    -18.97284027	    -11.23656322	    295.67457357	   -138.55685194	    -83.32585825	      0.00000000	      0.00000000	      5.44902044	     20.30359964	      6.52681643	   -226.13281968	   -155.99909575	    170.39055423	     88.18874875	     76.95701825	     -3.52369501	      9.65072621	    263.22283999	    -57.63578216	    346.84083396	    116.48221556	     62.48189177	     16.93031302	     24.48670130
    120.88000000	     86.04694978	    -17.41623848	    185.20784490	      2.41384848	      1.09746566	      0.34721691	     35.33303198	    -22.67020384	     20.53906350	     19.69571972	      0.34375516	      2.15128185	     -7.25155219	     27.47700994	     14.39669217	     11.98368481	    -58.71896758	     10.85656784	      0.18948285	     -0.31371762	     17.23106087	     28.47881134	     41.15655119	    -12.66783281	    -14.98235973	     76.43183121	    -16.84821764	    -15.91875721	     67.61609795	    -30.80056869	    -15.91875721	     47.03782235	    -30.80056869	    -13.10956476	     38.21797343	    -25.83224466	    -12.17316728	     23.51685335	    -19.62247302	    -11.23676980	    293.97712949	   -143.30105830	    -83.32739010	      0.00000000	      0.00000000	      7.75321919	     18.36032664	      4.06117286	   -226.61167523	   -153.85929320	    170.39723415	     88.16500329	     79.25778100	     -1.27614066	     10.31960351	    261.82868933	    -61.61070232	    335.28361476	    119.15661867	     64.08074819	      6.79368111	     18.16758364
    120.96000000	     82.70794776	    -17.73480618	    185.98109288	      2.29642597	      1.08115285	      0.33000606	     31.97385492	    -22.72222106	     19.20596855	     22.68892713	      0.39599648	      7.65526371	     -6.57446772	     26.53421284	     11.09877316	     11.75330159	    -54.89338501	     12.78940399	      0.22321721	      2.42256014	     14.51405002	     28.20613194	     41.84264634	    -12.19635269	    -14.98108940	     77.70597851	    -16.22114908	    -15.91740749	     68.74328367	    -29.65421194	    -15.91740749	     47.82196050	    -29.65421194	    -13.10845323	     38.85508139	    -24.87080241	    -12.17213514	     23.90888812	    -18.89215032	    -11.23581705	    298.87783852	   -137.96758094	    -83.32032493	      0.00000000	      0.00000000	      9.21568319	     15.67842886	      6.47017119	   -224.59546525	   -153.97615527	    172.74058227	     86.85681561	     80.63475456	     -1.86777438	      8.81802641	    255.99039563	    -64.27189887	    335.42511512	    131.21138123	     64.12522721	     21.33329132	     23.40617605
    121.04000000	     81.02241183	    -17.76000776	    187.03681605	      2.42125537	      1.07257674	      0.30279979	     26.71791859	    -22.38277371	     14.46336982	     21.43513015	      0.37411360	      8.64041289	     -4.68347699	     26.30569173	      9.29884590	     10.10863179	    -54.74593039	     13.59896614	      0.23734673	      1.60409557	     11.94105264	     28.33075042	     41.93315011	    -12.41951445	    -14.98127295	     77.87405308	    -16.51795422	    -15.91760251	     68.89197232	    -30.19680744	    -15.91760251	     47.92539726	    -30.19680744	    -13.10861383	     38.93912320	    -25.32587387	    -12.17228427	     23.96060197	    -19.23782788	    -11.23595472	    299.52429794	   -140.49203137	    -83.32134579	      0.00000000	      0.00000000	     11.20532545	     12.68455392	      3.62701718	   -226.90101015	   -154.21946867	    168.95552326	     89.74066266	     80.99248250	     -0.02009995	     10.97213168	    294.79345627	    -89.98999699	    266.87271618	     89.28771908	     62.04158592	     -8.49830971	      2.13286842
